<?xml version="1.0" encoding="UTF-8" standalone="no"?>
<svg xmlns:dc="http://purl.org/dc/elements/1.1/" 
   xmlns:cc="http://creativecommons.org/ns#" 
   xmlns:rdf="http://www.w3.org/1999/02/22-rdf-syntax-ns#" 
   xmlns:svg="http://www.w3.org/2000/svg" 
   xmlns="http://www.w3.org/2000/svg" 
   xmlns:xlink="http://www.w3.org/1999/xlink" 
   xmlns:sodipodi="http://sodipodi.sourceforge.net/DTD/sodipodi-0.dtd" 
   xmlns:inkscape="http://www.inkscape.org/namespaces/inkscape" version="1.1" id="Layer_1" x="0px" y="0px" viewBox="0 0 417.6 131.2" style="enable-background:new 0 0 417.6 131.2;" xml:space="preserve" sodipodi:docname="lg_dantri_dktop.svg" inkscape:version="0.92.3 (2405546, 2018-03-11)">
   <metadata id="metadata6985">
      <rdf:RDF>
         <cc:Work rdf:about="">
            <dc:format>image/svg+xml</dc:format>
            <dc:type rdf:resource="http://purl.org/dc/dcmitype/StillImage" />
         </cc:Work>
      </rdf:RDF>
   </metadata>
   <defs id="defs6983">
      <linearGradient id="linearGradient7544" inkscape:collect="always">
         <stop id="stop7540" offset="0" style="stop-color:#0a4f25;stop-opacity:1;" />
         <stop id="stop7542" offset="1" style="stop-color:#0f6c32;stop-opacity:1" />
      </linearGradient>

      <linearGradient inkscape:collect="always" xlink:href="#linearGradient7544" id="linearGradient7538" x1="181.10001" y1="0.2" x2="178.60001" y2="94.599998" gradientUnits="userSpaceOnUse" />
   </defs>
   <sodipodi:namedview pagecolor="#ffffff" bordercolor="#666666" borderopacity="1" objecttolerance="10" gridtolerance="10" guidetolerance="10" inkscape:pageopacity="0" inkscape:pageshadow="2" inkscape:window-width="1536" inkscape:window-height="801" id="namedview6981" showgrid="false" inkscape:zoom="1.3601532" inkscape:cx="162.95038" inkscape:cy="4.5600619" inkscape:window-x="-8" inkscape:window-y="-8" inkscape:window-maximized="1" inkscape:current-layer="g6978" />


   <path class="st1" d="M211.7,0.2v47.2L181.1,0.2h-28.3v61.3L131.5,0.2H118l10,13h-23.6l9.4-11.8l0.8-1.2h-13.8L82,52.1  c0,0,2.4-47.2-40.1-49.5H1.8L0.6,1.3v94.4h40.1c0,0,20.1-1.2,31.8-15.3l-4.7,14.2h28.3l4.7-14.2h28.3l4.7,14.2h44.8V49.7l33,44.8  h25.9V0.2H211.7z M52.5,53.2c0,0,0,7.1-7.1,11.8c0,0-4.7,4.7-16.5,4.7V27.3H36c0,0,16.5,2.4,16.5,18.9V53.2z M109.1,55.6l7.1-14.2  l7.1,14.2H109.1z" id="path6934" style="fill:url(#linearGradient7538);fill-opacity:1" />
   <path class="st1" d="M408.7,13.1h-11.8l8.3-13h-16.5v16.5c0,0-4.7-11.8-21.2-16.5h-118v28.3h21.2v66.1h25.9v-66h21.2v66.1h25.9V70.9  l18.9,23.6H417V4.9L408.7,13.1z M354.5,43.8H345V24.9h7.1c0,0,7.1,2.4,7.1,11.8C359.2,36.7,359.2,41.4,354.5,43.8z M389.8,83.9  l-16.5-23.6c0,0,7.1-2.4,16.5-16.5V83.9z" id="path6936" style="fill:url(#linearGradient7538);fill-opacity:1" />
   <g class="st2" id="g6978" style="display:inline;enable-background:new">
      <path style="fill:#000000;fill-opacity:0.94117647" d="M 44.199219 104 C 42.699219 104 41.900781 104.7 41.800781 106 L 42.199219 106 C 42.299219 105.6 42.499219 105.29922 42.699219 105.19922 C 42.899219 104.99922 43.1 104.90039 43.5 104.90039 C 43.8 104.90039 44.299609 105.10039 45.099609 105.40039 C 46.099609 105.80039 46.899609 106 47.599609 106 C 47.999609 106 48.400781 106.00078 48.800781 105.80078 C 49.600781 105.40078 50 104.9 50 104 L 49.599609 104 C 49.399609 104.7 49.000391 105 48.400391 105 C 48.100391 105 47.600781 104.89961 46.800781 104.59961 C 45.900781 104.29961 45.399219 104.09961 45.199219 104.09961 C 44.899219 103.99961 44.599219 104 44.199219 104 z M 110.40039 104.40039 L 114.59961 108.80078 L 115.09961 108.80078 L 113.59961 104.40039 L 110.40039 104.40039 z M 264.30078 104.40039 L 262.80078 108.80078 L 263.30078 108.80078 L 267.5 104.40039 L 264.30078 104.40039 z M 182.59961 104.5 L 179.90039 108.69922 L 180.30078 108.69922 L 183.59961 106 L 187.5 108.69922 L 187.90039 108.69922 L 185.19922 104.5 L 182.59961 104.5 z M 44.599609 106.40039 L 42.099609 108.19922 L 42.5 108.19922 L 45.699219 107.19922 L 49 108.19922 L 49.400391 108.19922 L 47 106.40039 L 44.599609 106.40039 z M 315.19922 106.40039 L 312.69922 108.19922 L 313.09961 108.19922 L 316.30078 107.19922 L 319.59961 108.19922 L 320 108.19922 L 317.59961 106.40039 L 315.19922 106.40039 z M 113.30078 109.59961 L 106.5 123.69922 C 105.9 124.99922 105.40039 125.79922 104.90039 126.19922 C 104.60039 126.39922 104.10078 126.59922 103.30078 126.69922 L 103.30078 127.19922 L 109.40039 127.19922 L 109.40039 126.69922 C 108.50039 126.59922 107.89961 126.50078 107.59961 126.30078 C 107.29961 126.10078 107.19922 125.89961 107.19922 125.59961 C 107.19922 125.29961 107.39922 124.79961 107.69922 124.09961 L 109 121.40039 L 116.5 121.40039 L 117.59961 123.80078 C 117.99961 124.60078 118.19922 125.19961 118.19922 125.59961 C 118.19922 125.89961 118.10078 126.10078 117.80078 126.30078 C 117.50078 126.50078 116.99922 126.59961 116.19922 126.59961 L 116.19922 127.09961 L 123.80078 127.09961 L 123.80078 126.59961 C 123.10078 126.49961 122.4 126.3 122 126 C 121.5 125.7 121 124.90078 120.5 123.80078 L 113.80078 109.59961 L 113.30078 109.59961 z M 183.59961 109.59961 L 176.80078 123.69922 C 176.20078 124.99922 175.69922 125.79922 175.19922 126.19922 C 174.89922 126.39922 174.39961 126.59922 173.59961 126.69922 L 173.59961 127.19922 L 179.69922 127.19922 L 179.69922 126.69922 C 178.79922 126.59922 178.20039 126.50078 177.90039 126.30078 C 177.60039 126.10078 177.5 125.89961 177.5 125.59961 C 177.5 125.29961 177.7 124.79961 178 124.09961 L 179.30078 121.40039 L 186.80078 121.40039 L 187.90039 123.80078 C 188.30039 124.60078 188.5 125.19961 188.5 125.59961 C 188.5 125.89961 188.39961 126.10078 188.09961 126.30078 C 187.79961 126.50078 187.3 126.59961 186.5 126.59961 L 186.5 127.09961 L 194.09961 127.09961 L 194.09961 126.59961 C 193.39961 126.49961 192.70078 126.3 192.30078 126 C 191.80078 125.7 191.30078 124.90078 190.80078 123.80078 L 184.09961 109.59961 L 183.59961 109.59961 z M 380.09961 109.59961 L 373.30078 123.69922 C 372.70078 124.99922 372.19922 125.79922 371.69922 126.19922 C 371.39922 126.39922 370.89961 126.59922 370.09961 126.69922 L 370.09961 127.19922 L 376.19922 127.19922 L 376.19922 126.69922 C 375.29922 126.59922 374.70039 126.50078 374.40039 126.30078 C 374.10039 126.10078 374 125.89961 374 125.59961 C 374 125.29961 374.2 124.79961 374.5 124.09961 L 375.80078 121.40039 L 383.30078 121.40039 L 384.40039 123.80078 C 384.80039 124.60078 385 125.19961 385 125.59961 C 385 125.89961 384.89961 126.10078 384.59961 126.30078 C 384.29961 126.50078 383.8 126.59961 383 126.59961 L 383 127.09961 L 390.59961 127.09961 L 390.59961 126.59961 C 389.89961 126.49961 389.20078 126.3 388.80078 126 C 388.30078 125.7 387.80078 124.90078 387.30078 123.80078 L 380.59961 109.59961 L 380.09961 109.59961 z M 223.5 109.90039 L 223.30078 113.90039 L 223.80078 113.90039 C 223.80078 113.20039 224.00039 112.59961 224.40039 112.09961 C 224.80039 111.69961 225.19922 111.39922 225.69922 111.19922 C 226.09922 111.09922 226.69961 111 227.59961 111 L 229.90039 111 L 229.90039 124.19922 C 229.90039 125.09922 229.79961 125.7 229.59961 126 C 229.29961 126.5 228.70039 126.69922 227.90039 126.69922 L 227.19922 126.69922 L 227.19922 127.19922 L 235.40039 127.19922 L 235.40039 126.69922 L 234.69922 126.69922 C 233.89922 126.69922 233.4 126.59922 233 126.19922 C 232.7 125.89922 232.59961 125.29922 232.59961 124.19922 L 232.59961 111.09961 L 235.30078 111.09961 C 236.10078 111.09961 236.69922 111.10039 237.19922 111.40039 C 237.69922 111.70039 238.10039 112 238.40039 112.5 C 238.60039 112.8 238.70078 113.3 238.80078 114 L 239.30078 114 L 239.09961 110 L 239.09961 109.90039 L 223.5 109.90039 z M 325.69922 109.90039 L 325.5 113.90039 L 326 113.90039 C 326 113.20039 326.19961 112.49961 326.59961 112.09961 C 326.99961 111.69961 327.40039 111.39922 327.90039 111.19922 C 328.30039 111.09922 328.90078 111 329.80078 111 L 332.09961 111 L 332.09961 124.19922 C 332.09961 125.09922 332.00078 125.7 331.80078 126 C 331.50078 126.5 330.89961 126.69922 330.09961 126.69922 L 329.40039 126.69922 L 329.40039 127.19922 L 337.59961 127.19922 L 337.59961 126.69922 L 336.90039 126.69922 C 336.10039 126.69922 335.59922 126.59922 335.19922 126.19922 C 334.89922 125.89922 334.80078 125.29922 334.80078 124.19922 L 334.80078 111.09961 L 337.5 111.09961 C 338.3 111.09961 338.90039 111.10039 339.40039 111.40039 C 339.90039 111.70039 340.29961 112 340.59961 112.5 C 340.79961 112.8 340.9 113.3 341 114 L 341.5 114 L 341.30078 110 L 341.30078 109.90039 L 325.69922 109.90039 z M 5.8007812 110 L 5.8007812 110.40039 L 6.5 110.40039 C 7.2 110.40039 7.6996094 110.6 8.0996094 111 C 8.3996094 111.3 8.5 111.9 8.5 113 L 8.5 124 C 8.5 125 8.3992186 125.60039 8.1992188 125.90039 C 7.8992186 126.40039 7.3 126.59961 6.5 126.59961 L 5.8007812 126.59961 L 5.8007812 127.09961 L 5.8007812 127.19922 L 14.400391 127.19922 C 18.200391 127.19922 21.000781 126.3 22.800781 124.5 C 24.400781 122.9 25.199219 120.9 25.199219 118.5 C 25.199219 116.7 24.700781 115.20078 23.800781 113.80078 C 22.900781 112.40078 21.699219 111.50039 20.199219 110.90039 C 18.699219 110.30039 16.499609 110 13.599609 110 L 5.8007812 110 z M 26.900391 110 L 26.900391 110.5 L 27.599609 110.5 C 27.999609 110.5 28.500391 110.60078 28.900391 110.80078 C 29.200391 110.90078 29.4 111.10078 29.5 111.30078 C 29.6 111.60078 29.699219 112.1 29.699219 113 L 29.699219 124.09961 C 29.699219 125.09961 29.600391 125.7 29.400391 126 C 29.100391 126.4 28.499219 126.59961 27.699219 126.59961 L 27 126.59961 L 27 127.09961 L 35.300781 127.09961 L 35.300781 126.59961 L 34.5 126.59961 C 34 126.59961 33.599219 126.50078 33.199219 126.30078 C 32.899219 126.20078 32.699609 126.00078 32.599609 125.80078 C 32.499609 125.50078 32.400391 124.99961 32.400391 124.09961 L 32.400391 113 C 32.400391 112 32.600781 111.39961 32.800781 111.09961 C 33.100781 110.69961 33.7 110.5 34.5 110.5 L 35.199219 110.5 L 35.199219 110 L 26.900391 110 z M 36.599609 110 L 36.599609 110.5 L 37.300781 110.5 C 38.100781 110.5 38.7 110.7 39 111 C 39.3 111.2 39.400391 111.9 39.400391 113 L 39.400391 124 C 39.400391 124.9 39.299219 125.39922 39.199219 125.69922 C 39.099219 125.99922 38.899609 126.20078 38.599609 126.30078 C 38.199609 126.50078 37.800781 126.59961 37.300781 126.59961 L 36.599609 126.59961 L 36.599609 127.09961 L 51.5 127.09961 L 53.199219 122.80078 L 52.599609 122.80078 C 51.999609 123.90078 51.400781 124.69922 50.800781 125.19922 C 50.400781 125.59922 49.900391 125.9 49.400391 126 C 48.900391 126.1 48.1 126.19922 47 126.19922 L 43.699219 126.19922 C 43.099219 126.19922 42.799609 126.19961 42.599609 126.09961 C 42.399609 125.99961 42.299219 125.89922 42.199219 125.69922 C 42.099219 125.49922 42.099609 125.10078 42.099609 124.30078 L 42.099609 118.69922 L 46.300781 118.69922 C 47.100781 118.69922 47.699609 118.8 48.099609 119 C 48.399609 119.2 48.700391 119.39922 48.900391 119.69922 C 49.000391 119.89922 49.200781 120.50078 49.300781 121.30078 L 49.800781 121.30078 L 49.800781 115.30078 L 49.300781 115.30078 C 49.300781 116.20078 49 116.90078 48.5 117.30078 C 48.1 117.60078 47.400781 117.69922 46.300781 117.69922 L 42.099609 117.69922 L 42.099609 110.90039 L 47.300781 110.90039 C 48.300781 110.90039 48.900781 110.99961 49.300781 111.09961 C 49.800781 111.29961 50.200391 111.60039 50.400391 111.90039 C 50.700391 112.30039 50.899609 112.90078 51.099609 113.80078 L 51.699219 113.80078 L 51.5 110 L 36.599609 110 z M 53.300781 110 L 53.300781 110.5 C 53.900781 110.5 54.299609 110.49961 54.599609 110.59961 C 55.199609 110.69961 55.600391 110.99961 55.900391 111.09961 C 56.200391 111.19961 56.599219 111.59922 57.199219 112.19922 L 57.199219 124.09961 C 57.199219 124.99961 57.100391 125.60039 56.900391 125.90039 C 56.600391 126.40039 55.999219 126.59961 55.199219 126.59961 L 54.5 126.59961 L 54.5 127.09961 L 61.199219 127.09961 L 61.199219 126.59961 L 60.5 126.59961 C 59.7 126.59961 59.200781 126.49961 58.800781 126.09961 C 58.500781 125.79961 58.400391 125.19961 58.400391 124.09961 L 58.400391 113.59961 L 71.099609 127.40039 L 71.599609 127.40039 L 71.599609 113 C 71.599609 112.1 71.700391 111.49922 71.900391 111.19922 C 72.200391 110.69922 72.799609 110.5 73.599609 110.5 L 74.300781 110.5 L 74.300781 110 L 67.599609 110 L 67.599609 110.40039 L 68.300781 110.40039 C 69.100781 110.40039 69.6 110.50039 70 110.90039 C 70.3 111.20039 70.400391 111.80039 70.400391 112.90039 L 70.400391 122.80078 L 58.599609 110 L 53.400391 110 L 53.300781 110 z M 82.599609 110 L 82.599609 110.40039 L 83.300781 110.40039 C 84.000781 110.40039 84.500391 110.6 84.900391 111 C 85.200391 111.3 85.300781 111.9 85.300781 113 L 85.300781 117.59961 L 82.5 117.59961 L 82.5 118.5 L 85.300781 118.5 L 85.300781 124 C 85.300781 125 85.2 125.60039 85 125.90039 C 84.7 126.40039 84.100781 126.59961 83.300781 126.59961 L 82.599609 126.59961 L 82.599609 127.09961 L 91.099609 127.09961 C 94.799609 127.09961 97.600781 126.19961 99.300781 124.59961 C 101.00078 122.99961 101.90039 120.9 101.90039 118.5 C 101.90039 116.7 101.4 115.10078 100.5 113.80078 C 99.6 112.50078 98.4 111.50039 97 110.90039 C 95.6 110.30039 93.400391 110 90.400391 110 L 82.599609 110 z M 123.69922 110 L 123.69922 110.5 C 124.29922 110.5 124.7 110.49961 125 110.59961 C 125.6 110.69961 126.00078 110.99961 126.30078 111.09961 C 126.60078 111.19961 126.99961 111.59922 127.59961 112.19922 L 127.59961 124.09961 C 127.59961 124.99961 127.50078 125.60039 127.30078 125.90039 C 127.00078 126.40039 126.39961 126.59961 125.59961 126.59961 L 124.90039 126.59961 L 124.90039 127.09961 L 131.59961 127.09961 L 131.59961 126.59961 L 130.90039 126.59961 C 130.10039 126.59961 129.59922 126.49961 129.19922 126.09961 C 128.89922 125.79961 128.80078 125.19961 128.80078 124.09961 L 128.80078 113.59961 L 141.5 127.40039 L 142 127.40039 L 142 113 C 142 112.1 142.10078 111.49922 142.30078 111.19922 C 142.60078 110.69922 143.2 110.5 144 110.5 L 144.69922 110.5 L 144.69922 110 L 138 110 L 138 110.40039 L 138.69922 110.40039 C 139.49922 110.40039 140.00039 110.50039 140.40039 110.90039 C 140.70039 111.20039 140.80078 111.80039 140.80078 112.90039 L 140.80078 122.80078 L 129 110 L 123.80078 110 L 123.69922 110 z M 153 110 L 153 110.40039 L 153.69922 110.40039 C 154.39922 110.40039 154.90078 110.6 155.30078 111 C 155.60078 111.3 155.69922 111.9 155.69922 113 L 155.69922 124 C 155.69922 125 155.60039 125.60039 155.40039 125.90039 C 155.10039 126.40039 154.49922 126.59961 153.69922 126.59961 L 153 126.59961 L 153 127.09961 L 153 127.19922 L 161.59961 127.19922 C 165.39961 127.19922 168.2 126.3 170 124.5 C 171.6 122.9 172.40039 120.9 172.40039 118.5 C 172.40039 116.7 171.9 115.20078 171 113.80078 C 170.1 112.40078 168.90039 111.50039 167.40039 110.90039 C 165.90039 110.30039 163.70078 110 160.80078 110 L 153 110 z M 194 110 L 194 110.5 C 194.6 110.5 195.00078 110.49961 195.30078 110.59961 C 195.90078 110.69961 196.29961 110.99961 196.59961 111.09961 C 196.89961 111.19961 197.30039 111.59922 197.90039 112.19922 L 197.90039 124.09961 C 197.90039 124.99961 197.79961 125.60039 197.59961 125.90039 C 197.29961 126.40039 196.70039 126.59961 195.90039 126.59961 L 195.19922 126.59961 L 195.19922 127.09961 L 201.90039 127.09961 L 201.90039 126.59961 L 201.19922 126.59961 C 200.39922 126.59961 199.9 126.49961 199.5 126.09961 C 199.2 125.79961 199.09961 125.19961 199.09961 124.09961 L 199.09961 113.59961 L 211.80078 127.40039 L 212.30078 127.40039 L 212.30078 113 C 212.30078 112.1 212.39961 111.49922 212.59961 111.19922 C 212.89961 110.69922 213.50078 110.5 214.30078 110.5 L 215 110.5 L 215 110 L 208.30078 110 L 208.30078 110.40039 L 209 110.40039 C 209.8 110.40039 210.29922 110.50039 210.69922 110.90039 C 210.99922 111.20039 211.09961 111.80039 211.09961 112.90039 L 211.09961 122.80078 L 199.30078 110 L 194.09961 110 L 194 110 z M 240.59961 110 L 240.59961 110.40039 L 241.30078 110.40039 C 242.00078 110.40039 242.50039 110.6 242.90039 111 C 243.20039 111.3 243.30078 111.9 243.30078 113 L 243.30078 124.09961 C 243.30078 125.09961 243.2 125.7 243 126 C 242.7 126.5 242.10078 126.69922 241.30078 126.69922 L 240.59961 126.69922 L 240.59961 127.19922 L 248.90039 127.19922 L 248.90039 126.69922 L 248.09961 126.69922 C 247.39961 126.69922 246.9 126.49961 246.5 126.09961 C 246.2 125.79961 246.09961 125.19961 246.09961 124.09961 L 246.09961 119.09961 L 246.5 119.09961 L 246.90039 119.09961 L 248.09961 119.09961 L 254.59961 127.09961 L 259.69922 127.09961 L 259.69922 126.5 C 258.59922 126.4 257.79961 126.20078 257.09961 125.80078 C 256.49961 125.50078 255.70078 124.69961 254.80078 123.59961 L 250.80078 118.69922 C 252.40078 118.39922 253.60039 117.89961 254.40039 117.09961 C 255.20039 116.39961 255.59961 115.50039 255.59961 114.40039 C 255.59961 113.50039 255.29961 112.60039 254.59961 111.90039 C 253.89961 111.20039 253.09961 110.70039 252.09961 110.40039 C 251.19961 110.10039 249.59961 110 247.59961 110 L 240.59961 110 z M 260.09961 110 L 260.09961 110.5 L 260.80078 110.5 C 261.20078 110.5 261.69961 110.60078 262.09961 110.80078 C 262.39961 110.90078 262.59922 111.10078 262.69922 111.30078 C 262.79922 111.60078 262.90039 112.1 262.90039 113 L 262.90039 124.09961 C 262.90039 125.09961 262.79961 125.7 262.59961 126 C 262.29961 126.4 261.70039 126.59961 260.90039 126.59961 L 260.19922 126.59961 L 260.19922 127.09961 L 268.5 127.09961 L 268.5 126.59961 L 267.69922 126.59961 C 267.19922 126.59961 266.80039 126.50078 266.40039 126.30078 C 266.10039 126.20078 265.90078 126.00078 265.80078 125.80078 C 265.70078 125.50078 265.59961 124.99961 265.59961 124.09961 L 265.59961 113 C 265.59961 112 265.8 111.39961 266 111.09961 C 266.3 110.69961 266.89922 110.5 267.69922 110.5 L 268.40039 110.5 L 268.40039 110 L 260.09961 110 z M 276.30078 110 L 276.30078 110.5 C 276.90078 110.6 277.39922 110.70078 277.69922 110.80078 C 278.09922 110.90078 278.39961 111.10039 278.59961 111.40039 C 278.79961 111.60039 279.00039 112.00078 279.40039 112.80078 L 286.59961 127.59961 L 287.09961 127.59961 L 293.80078 113 C 294.20078 112.1 294.59961 111.49961 295.09961 111.09961 C 295.39961 110.79961 295.89961 110.6 296.59961 110.5 L 296.59961 110 L 290.90039 110 L 290.90039 110.5 L 291.09961 110.5 C 291.79961 110.6 292.2 110.8 292.5 111 C 292.8 111.2 292.90039 111.49922 292.90039 111.69922 C 292.90039 111.99922 292.59922 112.69922 292.19922 113.69922 L 287.69922 123.59961 L 282.80078 113.59961 C 282.30078 112.69961 282.09961 111.99961 282.09961 111.59961 C 282.09961 111.29961 282.2 111.10039 282.5 110.90039 C 282.7 110.70039 283.29922 110.6 284.19922 110.5 L 284.19922 110 L 276.30078 110 z M 297.5 110 L 297.5 110.5 L 298.19922 110.5 C 298.59922 110.5 299.1 110.60078 299.5 110.80078 C 299.8 110.90078 299.99961 111.10078 300.09961 111.30078 C 300.19961 111.60078 300.30078 112.1 300.30078 113 L 300.30078 124.09961 C 300.30078 125.09961 300.2 125.7 300 126 C 299.7 126.4 299.10078 126.59961 298.30078 126.59961 L 297.59961 126.59961 L 297.59961 127.09961 L 305.90039 127.09961 L 305.90039 126.59961 L 305.09961 126.59961 C 304.59961 126.59961 304.20078 126.50078 303.80078 126.30078 C 303.50078 126.20078 303.29922 126.00078 303.19922 125.80078 C 303.09922 125.50078 303 124.99961 303 124.09961 L 303 113 C 303 112 303.20039 111.39961 303.40039 111.09961 C 303.70039 110.69961 304.29961 110.5 305.09961 110.5 L 305.80078 110.5 L 305.80078 110 L 297.5 110 z M 307.30078 110 L 307.30078 110.5 L 308 110.5 C 308.8 110.5 309.39922 110.7 309.69922 111 C 309.99922 111.2 310.09961 111.9 310.09961 113 L 310.09961 124 C 310.09961 124.9 310.00039 125.39922 309.90039 125.69922 C 309.80039 125.99922 309.60078 126.20078 309.30078 126.30078 C 308.90078 126.50078 308.5 126.59961 308 126.59961 L 307.30078 126.59961 L 307.30078 127.09961 L 322.19922 127.09961 L 323.90039 122.80078 L 323.30078 122.80078 C 322.70078 123.90078 322.1 124.69922 321.5 125.19922 C 321.1 125.59922 320.59961 125.9 320.09961 126 C 319.59961 126.1 318.79922 126.19922 317.69922 126.19922 L 314.40039 126.19922 C 313.80039 126.19922 313.50078 126.19961 313.30078 126.09961 C 313.10078 125.99961 313.00039 125.89922 312.90039 125.69922 C 312.80039 125.49922 312.80078 125.10078 312.80078 124.30078 L 312.80078 118.69922 L 317 118.69922 C 317.8 118.69922 318.40078 118.8 318.80078 119 C 319.10078 119.2 319.39961 119.39922 319.59961 119.69922 C 319.69961 119.89922 319.9 120.50078 320 121.30078 L 320.40039 121.30078 L 320.40039 115.30078 L 319.90039 115.30078 C 319.90039 116.20078 319.59961 116.90078 319.09961 117.30078 C 318.69961 117.60078 318.00039 117.69922 316.90039 117.69922 L 312.69922 117.69922 L 312.69922 110.90039 L 318 110.90039 C 319 110.90039 319.6 110.99961 320 111.09961 C 320.5 111.29961 320.89961 111.60039 321.09961 111.90039 C 321.39961 112.30039 321.60078 112.90078 321.80078 113.80078 L 322.40039 113.80078 L 322.19922 110 L 307.30078 110 z M 348.5 110 L 348.5 110.5 C 349.1 110.5 349.50078 110.49961 349.80078 110.59961 C 350.40078 110.69961 350.79961 110.99961 351.09961 111.09961 C 351.39961 111.19961 351.80039 111.59922 352.40039 112.19922 L 352.40039 124.09961 C 352.40039 124.99961 352.29961 125.60039 352.09961 125.90039 C 351.79961 126.40039 351.20039 126.59961 350.40039 126.59961 L 349.69922 126.59961 L 349.69922 127.09961 L 356.40039 127.09961 L 356.40039 126.59961 L 355.69922 126.59961 C 354.89922 126.59961 354.4 126.49961 354 126.09961 C 353.7 125.79961 353.59961 125.19961 353.59961 124.09961 L 353.59961 113.59961 L 366.30078 127.40039 L 366.80078 127.40039 L 366.80078 113 C 366.80078 112.1 366.89961 111.49922 367.09961 111.19922 C 367.39961 110.69922 368.00078 110.5 368.80078 110.5 L 369.5 110.5 L 369.5 110 L 362.80078 110 L 362.80078 110.40039 L 363.5 110.40039 C 364.3 110.40039 364.79922 110.50039 365.19922 110.90039 C 365.49922 111.20039 365.59961 111.80039 365.59961 112.90039 L 365.59961 122.80078 L 353.80078 110 L 348.59961 110 L 348.5 110 z M 391.59961 110 L 391.59961 110.5 C 392.39961 110.5 393.00078 110.49922 393.30078 110.69922 C 393.60078 110.89922 393.9 111.10078 394 111.30078 C 394.2 111.60078 394.30078 112.10039 394.30078 112.90039 L 394.30078 124.09961 C 394.30078 124.99961 394.2 125.60039 394 125.90039 C 393.7 126.40039 393.10078 126.59961 392.30078 126.59961 L 391.59961 126.59961 L 391.59961 127.09961 L 398.30078 127.09961 L 398.30078 126.59961 L 397.59961 126.59961 C 396.79961 126.59961 396.30039 126.49961 395.90039 126.09961 C 395.60039 125.79961 395.5 125.19961 395.5 124.09961 L 395.5 112.69922 L 402.90039 127.09961 L 402.90039 127.19922 L 403.69922 127.19922 L 411.09961 112.80078 L 411.09961 124.19922 C 411.09961 125.09922 411.00078 125.7 410.80078 126 C 410.50078 126.5 409.89961 126.69922 409.09961 126.69922 L 408.40039 126.69922 L 408.40039 127.19922 L 416.59961 127.19922 L 416.59961 126.69922 L 415.90039 126.69922 C 415.10039 126.69922 414.59922 126.59922 414.19922 126.19922 C 413.89922 125.89922 413.80078 125.29922 413.80078 124.19922 L 413.80078 113 C 413.80078 112.1 413.89961 111.49922 414.09961 111.19922 C 414.39961 110.69922 415.00078 110.5 415.80078 110.5 L 416.5 110.5 L 416.5 110 L 411 110 L 404.09961 123.40039 L 397.09961 110 L 391.59961 110 z M 91 110.90039 C 93.3 110.90039 95.199609 111.50039 96.599609 112.90039 C 98.099609 114.30039 98.800781 116.1 98.800781 118.5 C 98.800781 120.9 98.099609 122.69961 96.599609 124.09961 C 95.099609 125.49961 93.299609 126.19922 91.099609 126.19922 C 90.299609 126.19922 89.299609 126.00078 88.099609 125.80078 L 88.099609 118.5 L 93.699219 118.5 L 93.699219 117.59961 L 88.099609 117.59961 L 88.099609 111.30078 C 89.199609 111.00078 90.1 110.90039 91 110.90039 z M 248.30078 110.90039 C 249.50078 110.90039 250.50078 111.20039 251.30078 111.90039 C 252.00078 112.60039 252.40039 113.4 252.40039 114.5 C 252.40039 115.6 251.9 116.49922 251 117.19922 C 250 117.89922 248.60078 118.30078 246.80078 118.30078 L 246.5 118.30078 L 246.09961 118.30078 L 246.09961 111.09961 C 246.99961 110.99961 247.80078 110.90039 248.30078 110.90039 z M 14.199219 111 C 16.499219 111 18.400781 111.6 19.800781 113 C 21.300781 114.4 22 116.19961 22 118.59961 C 22 120.99961 21.300781 122.79922 19.800781 124.19922 C 18.300781 125.59922 16.500781 126.30078 14.300781 126.30078 C 13.500781 126.30078 12.500781 126.10039 11.300781 125.90039 L 11.300781 111.40039 C 12.400781 111.10039 13.299219 111 14.199219 111 z M 161.40039 111 C 163.70039 111 165.6 111.6 167 113 C 168.5 114.4 169.19922 116.19961 169.19922 118.59961 C 169.19922 120.99961 168.5 122.79922 167 124.19922 C 165.5 125.59922 163.7 126.30078 161.5 126.30078 C 160.7 126.30078 159.7 126.10039 158.5 125.90039 L 158.5 111.40039 C 159.6 111.10039 160.50039 111 161.40039 111 z M 112.80078 113.5 L 116.09961 120.40039 L 109.40039 120.40039 L 112.80078 113.5 z M 183.09961 113.5 L 186.40039 120.40039 L 179.69922 120.40039 L 183.09961 113.5 z M 379.59961 113.5 L 382.90039 120.40039 L 376.19922 120.40039 L 379.59961 113.5 z M 315.40039 128.59961 C 315.00039 128.59961 314.60078 128.7 314.30078 129 C 314.00078 129.3 313.80078 129.6 313.80078 130 C 313.80078 130.4 314.00078 130.7 314.30078 131 C 314.60078 131.3 315.00039 131.40039 315.40039 131.40039 C 315.80039 131.40039 316.2 131.3 316.5 131 C 316.8 130.7 317 130.4 317 130 C 317 129.6 316.8 129.3 316.5 129 C 316.2 128.7 315.80039 128.59961 315.40039 128.59961 z " id="path6938" />



















   </g>
</svg>